<?xml version="1.0" encoding="iso-8859-1"?>
<!-- Generator: Adobe Illustrator 28.3.0, SVG Export Plug-In . SVG Version: 6.00 Build 0)  -->
<svg version="1.1" id="Layer_1" xmlns="http://www.w3.org/2000/svg" xmlns:xlink="http://www.w3.org/1999/xlink" x="0px" y="0px"
	 width="113.386px" height="40.859px" viewBox="0 0 113.386 40.859" enable-background="new 0 0 113.386 40.859"
	 xml:space="preserve">
<g>
	<g>
		<path fill="#434343" d="M26.654,40.859H5.164C2.317,40.859,0,38.542,0,35.695V8.698C0,5.85,2.317,3.533,5.164,3.533h21.49
			c2.847,0,5.164,2.317,5.164,5.165v26.997C31.817,38.542,29.501,40.859,26.654,40.859z M5.164,5.237
			c-1.908,0-3.46,1.552-3.46,3.461v26.997c0,1.907,1.552,3.46,3.46,3.46h21.49c1.908,0,3.46-1.552,3.46-3.46V8.698
			c0-1.908-1.552-3.461-3.46-3.461H5.164z"/>
	</g>
	<g>
		<g>
			<path fill="#DB7D63" d="M29.444,10.961c-2.787,0-5.055-2.268-5.055-5.055s2.268-5.054,5.055-5.054s5.055,2.267,5.055,5.054
				S32.231,10.961,29.444,10.961z"/>
		</g>
		<g>
			<path fill="#434343" d="M29.444,1.704c2.317,0,4.203,1.885,4.203,4.203c0,2.317-1.885,4.203-4.203,4.203
				c-2.317,0-4.203-1.885-4.203-4.203C25.242,3.589,27.127,1.704,29.444,1.704 M29.444,0c-3.262,0-5.906,2.644-5.906,5.906
				c0,3.262,2.644,5.906,5.906,5.906c3.262,0,5.906-2.644,5.906-5.906C35.351,2.644,32.706,0,29.444,0L29.444,0z"/>
		</g>
	</g>
	<g>
		<g>
			<path fill="#434343" d="M15.909,32.044c-0.47,0-0.852-0.382-0.852-0.852V13.445c0-0.47,0.382-0.852,0.852-0.852
				s0.852,0.382,0.852,0.852v17.747C16.761,31.662,16.379,32.044,15.909,32.044z"/>
		</g>
		<g>
			<path fill="#434343" d="M21.369,20.013h-10.92c-0.47,0-0.852-0.382-0.852-0.852s0.382-0.852,0.852-0.852h10.92
				c0.47,0,0.852,0.382,0.852,0.852S21.839,20.013,21.369,20.013z"/>
		</g>
	</g>
	<g>
		<path fill="#434343" d="M39.58,11.054h3.979c2.989,0,4.544,1.314,4.544,3.858c0,1.939-0.969,2.989-2.564,3.554v0.101l3.554,6.059
			h-2.04l-3.271-5.735h-2.425v5.735H39.58V11.054z M43.458,17.477c1.96,0,2.767-0.789,2.767-2.525c0-1.697-0.848-2.364-2.787-2.364
			h-2.081v4.889H43.458z"/>
		<path fill="#434343" d="M51.228,19.759v-0.303c0-3.494,2.08-5.069,4.423-5.069c2.747,0,4.06,1.595,4.06,4.747v0.969h-6.705
			c0.121,2.384,1.293,3.232,3.292,3.232c1.333,0,2.201-0.283,3.111-0.767v1.273c-0.586,0.444-1.738,0.969-3.394,0.969
			C52.843,24.808,51.228,22.849,51.228,19.759z M53.005,18.71h4.888c0-2.101-0.808-2.929-2.322-2.929
			C54.438,15.781,53.167,16.406,53.005,18.71z"/>
		<path fill="#434343" d="M63.401,14.064h1.959v1.978h-1.959V14.064z M63.401,21.436h1.959v1.959h-1.959V21.436z"/>
		<path fill="#434343" d="M70.001,11.054h4.202c3.171,0,4.423,1.293,4.423,3.434c0,1.353-0.586,2.404-2.222,2.929v0.08
			c1.697,0.322,2.788,1.312,2.788,3.272c0,2.242-1.536,3.857-4.645,3.857h-4.545V11.054z M73.9,16.892
			c1.635,0,2.867-0.486,2.867-2.161c0-1.677-0.949-2.142-2.706-2.142h-2.283v4.303H73.9z M74.445,23.132
			c1.898,0,2.888-0.808,2.888-2.444c0-1.716-1.091-2.363-3.009-2.363h-2.546v4.807H74.445z"/>
		<path fill="#434343" d="M82.477,10.811h1.757v1.798h-1.757V10.811z M82.477,14.588h1.738v10.038h-1.738V14.588z"/>
		<path fill="#434343" d="M88.027,24.343V10.165h1.718v5.03h0.1c0.767-0.465,1.677-0.808,3.011-0.808
			c1.877,0,3.898,1.152,3.898,4.888v0.303c0,3.333-1.716,5.292-5.03,5.292C90.573,24.869,88.876,24.648,88.027,24.343z
			 M94.996,19.84v-0.445c0-2.646-0.929-3.534-2.949-3.534c-0.929,0-1.838,0.363-2.302,0.566v6.665
			c0.424,0.162,1.09,0.324,2.099,0.324C93.481,23.415,94.996,22.648,94.996,19.84z"/>
		<path fill="#434343" d="M99.978,10.165h1.738v14.461h-1.738V10.165z"/>
		<path fill="#434343" d="M104.903,19.759v-0.303c0-3.494,2.08-5.069,4.423-5.069c2.747,0,4.06,1.595,4.06,4.747v0.969h-6.705
			c0.121,2.384,1.293,3.232,3.292,3.232c1.333,0,2.201-0.283,3.111-0.767v1.273c-0.586,0.444-1.738,0.969-3.394,0.969
			C106.519,24.808,104.903,22.849,104.903,19.759z M106.68,18.71h4.888c0-2.101-0.808-2.929-2.322-2.929
			C108.114,15.781,106.842,16.406,106.68,18.71z"/>
		<path fill="#DB7D63" d="M44.808,34.551c-1.009-0.51-1.994-1.383-2.357-2.402c-0.317,1.031-1.257,2.017-2.481,2.674l-0.441-0.544
			c1.427-0.702,2.538-1.926,2.538-3.523V29.78h0.725v0.952c0,1.609,1.337,2.833,2.458,3.239L44.808,34.551z M44.491,39.071
			c-2.119,0-3.297-0.703-3.297-1.824c0-1.133,1.179-1.836,3.297-1.836c2.119,0,3.296,0.703,3.296,1.836
			C47.786,38.368,46.609,39.071,44.491,39.071z M41.93,37.247c0,0.782,0.952,1.234,2.561,1.234c1.62,0,2.571-0.452,2.571-1.234
			s-0.951-1.235-2.571-1.235C42.882,36.012,41.93,36.465,41.93,37.247z M44.841,32.092v-0.623h2.108v-2.288h0.725v5.981h-0.725
			v-3.07H44.841z"/>
		<path fill="#DB7D63" d="M50.526,35.196l-0.441-0.612c2.152-0.623,3.851-2.254,4.123-3.931H50.56V30.03h4.463
			C54.865,32.432,53.176,34.245,50.526,35.196z M54.752,39.071c-2.164,0-3.365-0.703-3.365-1.824c0-1.133,1.201-1.836,3.365-1.836
			c2.152,0,3.365,0.703,3.365,1.836C58.116,38.368,56.904,39.071,54.752,39.071z M52.123,37.247c0,0.769,0.986,1.212,2.629,1.212
			c1.642,0,2.616-0.442,2.616-1.212c0-0.771-0.975-1.213-2.616-1.213C53.109,36.034,52.123,36.476,52.123,37.247z M55.023,33.203
			h2.288v-1.428h-2.186v-0.623h2.186v-1.971h0.725v6.265h-0.725v-1.632h-2.288V33.203z"/>
		<path fill="#DB7D63" d="M64.718,33.134h1.303v-3.76h0.725v9.222h-0.725v-4.849h-1.303c-0.08,1.858-0.816,3.002-2.073,3.002
			c-1.348,0-2.096-1.281-2.096-3.33c0-2.04,0.748-3.319,2.096-3.319C63.913,30.099,64.65,31.265,64.718,33.134z M62.645,30.733
			c-0.838,0-1.359,1.008-1.359,2.685c0,1.687,0.521,2.696,1.359,2.696c0.827,0,1.348-1.009,1.348-2.696
			C63.993,31.74,63.472,30.733,62.645,30.733z M67.946,39.082v-9.901h0.725v9.901H67.946z"/>
		<path fill="#DB7D63" d="M74.751,34.403v-4.317h3.682v0.623h-2.957v3.037c1.269,0,2.572-0.091,3.512-0.295l0.102,0.635
			C77.911,34.29,76.45,34.403,74.751,34.403z M82.67,39.218c-1.11-0.238-2.878-1.269-3.399-2.47
			c-0.407,1.144-2.004,2.119-3.398,2.436l-0.431-0.601c1.496-0.215,3.467-1.461,3.467-2.866v-0.374h0.771v0.374
			c0,1.428,1.994,2.651,3.421,2.878L82.67,39.218z M81.843,35.57V32.33H80.46v2.514h-0.702v-5.483h0.702v2.357h1.383v-2.538h0.725
			v6.389H81.843z"/>
		<path fill="#DB7D63" d="M92.036,32.919h1.507v0.612h-8.939v-0.612h6.684c0.193-0.771,0.284-1.461,0.284-2.605h-5.766v-0.623h6.525
			C92.331,31.095,92.229,32.035,92.036,32.919z M85.68,38.945v-2.401h5.937V35.4h-5.959v-0.601h6.684v2.323h-5.937v1.224h6.321v0.6
			H85.68z"/>
		<path fill="#DB7D63" d="M95.342,33.813v-4.01h4.44v0.612h-3.715v2.787c1.507,0.057,3.319-0.069,4.418-0.306l0.091,0.611
			C99.204,33.746,97.459,33.87,95.342,33.813z M96.384,39.014v-2.448h5.426v-1.121h-5.505v-0.623h6.23v2.31h-5.426v1.258h5.811
			v0.623H96.384z M102.535,32.046v2.232h-0.725v-5.097h0.725v2.254h1.541v0.612H102.535z"/>
		<path fill="#DB7D63" d="M105.875,37.043l-0.442-0.578c2.527-1.258,4.022-3.297,4.203-5.585h-3.784v-0.623h4.578
			C110.373,33.542,108.287,35.74,105.875,37.043z M112.661,39.082v-9.901h0.725v9.901H112.661z"/>
	</g>
</g>
<g>
</g>
<g>
</g>
<g>
</g>
<g>
</g>
<g>
</g>
<g>
</g>
</svg>
